<?xml version="1.0" encoding="UTF-8" standalone="no"?>
<!-- Created with Inkscape (http://www.inkscape.org/) -->

<svg
   xmlns:dc="http://purl.org/dc/elements/1.1/"
   xmlns:cc="http://creativecommons.org/ns#"
   xmlns:rdf="http://www.w3.org/1999/02/22-rdf-syntax-ns#"
   xmlns:svg="http://www.w3.org/2000/svg"
   xmlns="http://www.w3.org/2000/svg"
   xmlns:xlink="http://www.w3.org/1999/xlink"
   xmlns:sodipodi="http://sodipodi.sourceforge.net/DTD/sodipodi-0.dtd"
   xmlns:inkscape="http://www.inkscape.org/namespaces/inkscape"
   width="64px"
   height="64px"
   id="svg3720"
   version="1.1"
   inkscape:version="0.47 r22583"
   sodipodi:docname="car-logo2.svg">
  <title
     id="title4491">netalloy car logo2</title>
  <defs
     id="defs3722">
    <linearGradient
       inkscape:collect="always"
       id="linearGradient4413">
      <stop
         style="stop-color:#ff0000;stop-opacity:1;"
         offset="0"
         id="stop4415" />
      <stop
         style="stop-color:#ff0000;stop-opacity:0;"
         offset="1"
         id="stop4417" />
    </linearGradient>
    <linearGradient
       inkscape:collect="always"
       id="linearGradient4379">
      <stop
         style="stop-color:#d40000;stop-opacity:1;"
         offset="0"
         id="stop4381" />
      <stop
         style="stop-color:#d40000;stop-opacity:0;"
         offset="1"
         id="stop4383" />
    </linearGradient>
    <linearGradient
       inkscape:collect="always"
       id="linearGradient4365">
      <stop
         style="stop-color:#ff0000;stop-opacity:1;"
         offset="0"
         id="stop4367" />
      <stop
         style="stop-color:#ff0000;stop-opacity:0;"
         offset="1"
         id="stop4369" />
    </linearGradient>
    <linearGradient
       inkscape:collect="always"
       id="linearGradient4357">
      <stop
         style="stop-color:#1a1a1a;stop-opacity:1;"
         offset="0"
         id="stop4359" />
      <stop
         style="stop-color:#1a1a1a;stop-opacity:0;"
         offset="1"
         id="stop4361" />
    </linearGradient>
    <inkscape:perspective
       sodipodi:type="inkscape:persp3d"
       inkscape:vp_x="0 : 32 : 1"
       inkscape:vp_y="0 : 1000 : 0"
       inkscape:vp_z="64 : 32 : 1"
       inkscape:persp3d-origin="32 : 21.333333 : 1"
       id="perspective3728" />
    <inkscape:perspective
       id="perspective3696"
       inkscape:persp3d-origin="0.5 : 0.33333333 : 1"
       inkscape:vp_z="1 : 0.5 : 1"
       inkscape:vp_y="0 : 1000 : 0"
       inkscape:vp_x="0 : 0.5 : 1"
       sodipodi:type="inkscape:persp3d" />
    <filter
       inkscape:collect="always"
       id="filter4343">
      <feGaussianBlur
         inkscape:collect="always"
         stdDeviation="1.2049549"
         id="feGaussianBlur4345" />
    </filter>
    <linearGradient
       inkscape:collect="always"
       xlink:href="#linearGradient4357"
       id="linearGradient4363"
       x1="24.394005"
       y1="41.93576"
       x2="24.394005"
       y2="42.689507"
       gradientUnits="userSpaceOnUse"
       gradientTransform="translate(-50.980728,-11.100642)" />
    <linearGradient
       inkscape:collect="always"
       xlink:href="#linearGradient4365"
       id="linearGradient4371"
       x1="29.053534"
       y1="30.012848"
       x2="29.053534"
       y2="40.708576"
       gradientUnits="userSpaceOnUse"
       gradientTransform="matrix(1.1116826,0,0,1.1116826,-3.7276528,-4.3131067)" />
    <linearGradient
       inkscape:collect="always"
       xlink:href="#linearGradient4379"
       id="linearGradient4385"
       x1="44.128479"
       y1="36.591007"
       x2="38.235546"
       y2="35.16869"
       gradientUnits="userSpaceOnUse"
       gradientTransform="matrix(1.1116826,0,0,1.1116826,-3.7276528,-4.3131067)" />
    <linearGradient
       inkscape:collect="always"
       xlink:href="#linearGradient4413"
       id="linearGradient4419"
       x1="12.471092"
       y1="4.1113491"
       x2="23.98287"
       y2="67.426125"
       gradientUnits="userSpaceOnUse" />
  </defs>
  <sodipodi:namedview
     id="base"
     pagecolor="#ffffff"
     bordercolor="#666666"
     borderopacity="1.0"
     inkscape:pageopacity="0.0"
     inkscape:pageshadow="2"
     inkscape:zoom="4"
     inkscape:cx="38.303149"
     inkscape:cy="9.7550218"
     inkscape:current-layer="layer1"
     showgrid="true"
     inkscape:document-units="px"
     inkscape:grid-bbox="true"
     inkscape:window-width="1280"
     inkscape:window-height="712"
     inkscape:window-x="-4"
     inkscape:window-y="-4"
     inkscape:window-maximized="1" />
  <metadata
     id="metadata3725">
    <rdf:RDF>
      <cc:Work
         rdf:about="">
        <dc:format>image/svg+xml</dc:format>
        <dc:type
           rdf:resource="http://purl.org/dc/dcmitype/StillImage" />
        <dc:title>netalloy car logo2</dc:title>
        <dc:date>07-April-2010</dc:date>
        <dc:subject>
          <rdf:Bag>
            <rdf:li>icon</rdf:li>
            <rdf:li>car</rdf:li>
            <rdf:li>car logo</rdf:li>
            <rdf:li>automobile</rdf:li>
            <rdf:li>automotive</rdf:li>
            <rdf:li>speed</rdf:li>
            <rdf:li>race</rdf:li>
            <rdf:li>motorsports</rdf:li>
          </rdf:Bag>
        </dc:subject>
        <cc:license
           rdf:resource="http://creativecommons.org/licenses/publicdomain/" />
      </cc:Work>
      <cc:License
         rdf:about="http://creativecommons.org/licenses/publicdomain/">
        <cc:permits
           rdf:resource="http://creativecommons.org/ns#Reproduction" />
        <cc:permits
           rdf:resource="http://creativecommons.org/ns#Distribution" />
        <cc:permits
           rdf:resource="http://creativecommons.org/ns#DerivativeWorks" />
      </cc:License>
    </rdf:RDF>
  </metadata>
  <g
     id="layer1"
     inkscape:label="Layer 1"
     inkscape:groupmode="layer">
    <g
       id="g4480">
      <rect
         ry="0.31638417"
         y="0"
         x="0"
         height="64"
         width="64"
         id="rect4478"
         style="opacity:0;fill:#999999;fill-opacity:1;stroke:#b11b1b;stroke-width:0;stroke-linecap:round;stroke-miterlimit:4;stroke-opacity:1;stroke-dasharray:none;stroke-dashoffset:0" />
      <path
         inkscape:export-ydpi="36.964985"
         inkscape:export-xdpi="36.964985"
         inkscape:export-filename="C:\Documents and Settings\Fastallow\Desktop\cars_logo.png"
         sodipodi:nodetypes="cssscsssc"
         id="path15758"
         d="m 63.169585,40.941918 c 0,0 -4.80115,-3.667337 -8.695099,-4.064097 C 51.211683,36.54536 46.98619,36.88947 44.554733,35.215234 39.675952,31.85567 35.435596,29.17895 25.327556,28.657246 11.948881,27.966739 2.7061337,38.480697 3.6510557,40.202995 2.9391347,40.041908 12.082048,29.320067 25.694954,30.689297 c 7.564129,0.760824 9.830842,2.28016 17.63512,6.280888 2.884602,1.478737 8.158024,0.801785 11.63428,1.016027 3.754629,0.231395 8.205231,2.955706 8.205231,2.955706 z"
         style="fill:url(#linearGradient4371);fill-opacity:1;stroke:#000000;stroke-width:0;stroke-linecap:butt;stroke-linejoin:miter;stroke-miterlimit:4;stroke-opacity:1;stroke-dasharray:none" />
      <path
         transform="matrix(-0.09846132,-0.08592852,0.09846132,-0.08592852,-5.3794683,72.071983)"
         d="m 86.269928,254.11479 c 1.76377,1.67978 -1.39413,3.20627 -2.791908,2.9315 -3.787891,-0.74461 -4.511237,-5.55552 -3.071096,-8.51531 2.576074,-5.29439 9.581787,-6.07813 14.238728,-3.21069 6.834248,4.20807 7.689868,13.66209 3.350284,19.96213 -5.783979,8.39697 -17.761517,9.32062 -25.685547,3.48988 -9.971584,-7.33739 -10.961185,-21.87002 -3.629473,-31.40896 8.879687,-11.55292 25.983652,-12.60743 37.132364,-3.76906 13.13838,10.41571 14.25725,30.10046 3.90866,42.85578 -11.947849,14.72651 -34.219403,15.90943 -48.579183,4.04825 -16.316494,-13.47743 -17.563296,-38.33984 -4.187848,-54.3026 15.005231,-17.90779 42.461372,-19.21836 60.026001,-4.32744 4.69419,3.97963 8.539,8.932 11.25675,14.45203"
         sodipodi:t0="0"
         sodipodi:argument="-18.088543"
         sodipodi:radius="45.58437"
         sodipodi:revolution="2.8150556"
         sodipodi:expansion="1"
         sodipodi:cy="254.11479"
         sodipodi:cx="86.269928"
         id="path2878"
         style="opacity:0.19711537;fill:#e6e6e6;stroke:#c0b6b6;stroke-width:3.12519693;stroke-linecap:butt;stroke-linejoin:miter;stroke-miterlimit:4;stroke-opacity:1;stroke-dasharray:none;filter:url(#filter4343)"
         sodipodi:type="spiral" />
      <path
         sodipodi:type="spiral"
         style="opacity:0.19711537;fill:#e6e6e6;stroke:#c0b6b6;stroke-width:3.12519693;stroke-linecap:butt;stroke-linejoin:miter;stroke-miterlimit:4;stroke-opacity:1;stroke-dasharray:none;filter:url(#filter4343)"
         id="path4349"
         sodipodi:cx="86.269928"
         sodipodi:cy="254.11479"
         sodipodi:expansion="1"
         sodipodi:revolution="2.7224941"
         sodipodi:radius="44.08551"
         sodipodi:argument="-18.088543"
         sodipodi:t0="0"
         d="m 86.269928,254.11479 c 1.76377,1.67978 -1.39413,3.20627 -2.791908,2.9315 -3.78789,-0.74461 -4.511236,-5.55552 -3.071095,-8.51531 2.576073,-5.29438 9.581786,-6.07813 14.238726,-3.21069 6.834249,4.20807 7.689859,13.66209 3.350283,19.96213 -5.783978,8.39696 -17.761515,9.32062 -25.685544,3.48988 -9.971582,-7.33739 -10.961183,-21.87002 -3.629471,-31.40895 8.879685,-11.55293 25.983648,-12.60743 37.132361,-3.76907 13.13837,10.41571 14.25725,30.10046 3.90866,42.85577 -11.947851,14.72651 -34.219402,15.90944 -48.57918,4.04826 -16.316492,-13.47743 -17.563294,-38.33984 -4.187848,-54.30259 13.122896,-15.66135 36.31952,-18.98105 53.776078,-8.75774"
         transform="matrix(-0.0809154,-0.07061595,0.0809154,-0.07061595,44.155959,66.773866)" />
      <path
         transform="matrix(0.98985448,0,0,1.406619,-3.5043451,-16.47317)"
         sodipodi:end="11.809097"
         sodipodi:start="5.8809484"
         d="m 17.690703,40.689858 a 5.0021415,3.3576016 0 1 1 -0.967795,-0.992054 l -3.635114,2.30648 z"
         sodipodi:ry="3.3576016"
         sodipodi:rx="5.0021415"
         sodipodi:cy="42.004284"
         sodipodi:cx="13.087794"
         id="path4351"
         style="opacity:0.74038463;fill:#e6e6e6;fill-opacity:1;stroke:#322828;stroke-width:1.3189702;stroke-linecap:round;stroke-miterlimit:4;stroke-opacity:0.57558139;stroke-dasharray:none;stroke-dashoffset:0"
         sodipodi:type="arc" />
      <path
         sodipodi:type="arc"
         style="opacity:0.84134617;fill:#e6e6e6;fill-opacity:1;stroke:#2d2d2d;stroke-width:1.31861365;stroke-linecap:round;stroke-miterlimit:4;stroke-opacity:0.57558139;stroke-dasharray:none;stroke-dashoffset:0"
         id="path4373"
         sodipodi:cx="13.087794"
         sodipodi:cy="42.004284"
         sodipodi:rx="5.0021415"
         sodipodi:ry="3.3576016"
         d="m 17.690703,40.689858 a 5.0021415,3.3576016 0 1 1 -0.967795,-0.992054 l -3.635114,2.30648 z"
         sodipodi:start="5.8809484"
         sodipodi:end="11.809097"
         transform="matrix(-0.69513187,-0.62903239,0.98780755,-0.89387769,24.215145,89.378043)" />
      <path
         style="fill:url(#linearGradient4385);fill-opacity:1;stroke:#b11b1b;stroke-width:0.11116827;stroke-linecap:butt;stroke-linejoin:miter;stroke-miterlimit:4;stroke-opacity:1;stroke-dasharray:none"
         d="m 63.169585,40.941918 c 0,0 -4.80115,-3.667337 -8.695099,-4.064097 C 51.211683,36.54536 46.98619,36.88947 44.554733,35.215234 39.675952,31.85567 35.435596,29.17895 25.327556,28.657246 11.948881,27.966739 2.7061337,38.480697 3.6510557,40.202995 2.9391347,40.041908 12.082048,29.320067 25.694954,30.689297 c 7.564129,0.760824 9.830842,2.28016 17.63512,6.280888 2.884602,1.478737 8.158024,0.801785 11.63428,1.016027 3.754629,0.231395 8.205231,2.955706 8.205231,2.955706 z"
         id="path4377"
         sodipodi:nodetypes="cssscsssc"
         inkscape:export-filename="C:\Documents and Settings\Fastallow\Desktop\cars_logo.png"
         inkscape:export-xdpi="36.964985"
         inkscape:export-ydpi="36.964985" />
      <text
         id="text4468"
         y="35.357601"
         x="-15.623126"
         style="font-size:40px;font-style:normal;font-weight:normal;fill:#000000;fill-opacity:1;stroke:none;font-family:Bitstream Vera Sans"
         xml:space="preserve"><tspan
           y="35.357601"
           x="-15.623126"
           id="tspan4470"
           sodipodi:role="line" /></text>
    </g>
  </g>
</svg>
